<svg width="676" height="676" viewBox="0 0 676 676" fill="none" xmlns="http://www.w3.org/2000/svg">
<path d="M15 153.429L338 291.857L499.5 222.643L661 153.429L338 15L176.5 84.2143L15 153.429Z" fill="white"/>
<path d="M338 661V291.857L15 153.429V522.571L338 661Z" fill="white"/>
<path d="M338 291.857V661L661 522.571V153.429L499.5 222.643L338 291.857Z" fill="#692DB6"/>
<path d="M338 661V291.857M338 661L15 522.571V153.429M338 661L661 522.571V153.429M338 291.857L499.5 222.643M338 291.857L15 153.429M15 153.429L176.5 84.2143M661 153.429L499.5 222.643M661 153.429L338 15L176.5 84.2143M499.5 222.643L176.5 84.2143" stroke="#222222" stroke-width="30" stroke-linecap="round" stroke-linejoin="round"/>
<path d="M480.848 347.748L566.412 309.72" stroke="white" stroke-width="30" stroke-linecap="round"/>
</svg>
