<svg width="100" height="100" viewBox="0 0 100 100" fill="none" xmlns="http://www.w3.org/2000/svg">
<path d="M0 30C0 13.4315 13.4315 0 30 0H70C86.5685 0 100 13.4315 100 30V70C100 86.5685 86.5685 100 70 100H30C13.4315 100 0 86.5685 0 70V30Z" fill="#F28482"/>
<path d="M48.3333 36.6666H36.6667C35.7826 36.6666 34.9348 37.0178 34.3096 37.6429C33.6845 38.2681 33.3333 39.1159 33.3333 40V63.3333C33.3333 64.2174 33.6845 65.0652 34.3096 65.6903C34.9348 66.3154 35.7826 66.6666 36.6667 66.6666H60C60.884 66.6666 61.7319 66.3154 62.357 65.6903C62.9821 65.0652 63.3333 64.2174 63.3333 63.3333V51.6666M60.8333 34.1666C61.4964 33.5036 62.3956 33.1311 63.3333 33.1311C64.271 33.1311 65.1703 33.5036 65.8333 34.1666C66.4964 34.8297 66.8689 35.729 66.8689 36.6666C66.8689 37.6043 66.4964 38.5036 65.8333 39.1666L50 55L43.3333 56.6666L45 50L60.8333 34.1666Z" stroke="#F7EDE2" stroke-width="4" stroke-linecap="round" stroke-linejoin="round"/>
</svg>
