<svg xmlns="http://www.w3.org/2000/svg" width="350" height="200" viewBox="0 0 841.38699 633.52516" xmlns:xlink="http://www.w3.org/1999/xlink" role="img" artist="Katerina Limpitsouni" source="https://undraw.co/"><polygon points="333.04938 444.23808 355.05533 446.23009 382.38528 460.11012 386.89243 444.01314 390.8287 423.63392 382.62811 413.97572 368.46277 423.63392 338.8443 420.41453 333.04938 444.23808" fill="#fdadb0" stroke-width="0"/><polygon points="152.40428 413.34337 135.48917 462.79497 257.18243 428.0254 335.73575 449.91731 347.32556 424.80601 260.40182 388.10487 193.06126 415.46428 152.40428 413.34337" fill="#2f2e41" stroke-width="0"/><path d="m384.85477,422.76179l2.57553,1.93164-15.99094,30.26562s10.80194,6.30206,14.02136,6.30206,14.20328-62.32288,12.91553-71.52731c-1.28778-9.20441-9.6582-6.24866-9.6582-6.24866l-18.06863,38.1709,14.20535,1.10577.00003-.00003h-.00003Z" fill="#2f2e41" stroke-width="0"/><path id="uuid-1b18f281-de0d-4de5-a01b-8589a33a6e3c-878" d="m228.18222,256.257l-15.11224,28.13992,11.03008,6.30862,15.88187-27.93314c2.49564-1.71921,4.54326-4.01111,5.97157-6.6839,3.66672-6.64076,3.21355-13.91261-1.01111-16.24542s-10.62051,1.15778-14.28502,7.79666c-1.5014,2.63351-2.35011,5.58839-2.47513,8.61728l-.00002-.00003Z" fill="#fdadb0" stroke-width="0"/><polygon points="116.77254 327.96739 193.45879 342.59041 240.76614 268.30443 221.91975 256.70985 185.53464 305.55449 116.3818 296.88762 116.77254 327.96739" fill="#e6e6e6" stroke-width="0"/><rect x="183.44386" y="255.97018" width="489.83293" height="205.51036" fill="#9747ff" stroke-width="0"/><polygon points="102.40847 308.68269 110.7789 279.06425 131.38306 279.70811 138.46571 303.53166 102.40847 308.68269" fill="#fdadb0" stroke-width="0"/><polygon points="102.40847 308.68269 110.7789 279.06425 131.38306 279.70811 138.46571 303.53166 102.40847 308.68269" isolation="isolate" opacity=".1" stroke-width="0"/><circle cx="123.69866" cy="259.47642" r="27.36301" fill="#fdadb0" stroke-width="0"/><path d="m121.51489,222.6888l-.41397.71014c5.35251-1.06383,20.22495-1.75229,23.89124,2.2899s5.01947,10.05084,3.43988,15.27443c2.59781,1.51781,4.43277,4.27577,4.82916,7.25826s-.65451,6.12399-2.76572,8.26765c.81519-4.23003-1.46066-8.67944-4.97607-11.16934-3.51538-2.4899-8.04535-3.22218-12.3342-2.81789-7.78568.73396-15.14264,5.15804-19.44122,11.69083-3.56378,5.41609-5.45096,12.48875-11.12518,15.62523-1.17313.64847,1.90717,3.14102,1.11795,4.22446-1.2507,1.71698-.21567-1.03259,1.02145.69421s-.19412,3.89868.80481,5.77335c.99893,1.87469-.6525,7.03516-2.46902,8.13632-8.13425-8.06323-20.60754-18.59723-21.02197-30.04318-.41446-11.44595,2.21033-21.06422,9.74011-29.69463-5.28326-3.51299-6.52808-11.36983-3.60419-17.00052,2.92386-5.63071,9.12827-9.03575,15.41656-9.87898,4.89667-.65662,10.33621.24973,13.75897,3.81252,2.2677,2.36049,3.379,5.57018,4.42609,8.67146.49213,1.45761.98425,2.91521,1.47638,4.37282.29327.86864.58902,1.80397.33514,2.68492-.25391.88095-1.31445,1.58023-2.10623,1.11804h.00003v.00002-.00002Z" fill="#2f2e41" stroke-width="0"/><path d="m120.68365,242.66054l-.49615.3434c1.63574,5.0708-1.70358,10.33649-5.25916,14.3047-3.5556,3.9682-7.73792,8.05273-8.20932,13.35992-.53506,6.02399,3.98297,11.7764,2.95724,17.73651-.88113,5.11984-6.39868,8.94681-11.50269,7.97827,5.16541-4.4097,7.28024-12.06671,5.11032-18.50241-1.32755-3.93732-4.10535-7.50085-4.16858-11.65549-.06256-4.10934,2.547-7.71902,5.03824-10.98769,4.32224-5.67107,9.44083-11.8119,16.53006-12.57719h.00003l.00002-.00002v-.00002Z" fill="#2f2e41" stroke-width="0"/><path d="m827.27051,458.72606H1.8806c-1.04297,0-1.8806.53003-1.8806,1.19s.83762,1.19,1.8806,1.19h825.38991c1.04303,0,1.88068-.52997,1.88068-1.19s-.83765-1.19-1.88068-1.19Z" fill="#3f3d56" stroke-width="0"/><polygon points="627.40222 91.27142 631.27551 67.06312 605.13055 56.41144 601.2572 93.20808 627.40222 91.27142" fill="#a0616a" stroke-width="0"/><path id="uuid-21077125-a9ce-4d78-89d9-fa9488c9c891-879" d="m697.81061,246.55595c8.84338,5.78387,18.99591,5.90924,22.6759.28067s-.50616-14.8782-9.35345-20.66293c-3.50238-2.35925-7.51892-3.84543-11.71344-4.33415l-37.77917-24.03333-10.90021,17.96904,38.40082,21.78484c2.12994,3.64799,5.10278,6.7327,8.66962,8.99586h-.00006Z" fill="#a0616a" stroke-width="0"/><path d="m613.29883,95.39046h-.00006c-13.84869,1.13684-23.48486,14.26888-20.41449,27.82072l15.76288,69.57413,72.54736,42.41229,8.92889-22.69431-49.48102-36.83173-2.64899-58.54191c-.58527-12.93433-11.79047-22.7985-24.69458-21.7392Z" fill="#e6e6e6" stroke-width="0"/><polygon points="750.12225 342.41878 765.48499 365.39921 768.34467 372.59843 776.76831 377.92543 808.72229 363.09239 801.79956 347.93303 781.05511 349.30232 772.53015 336.22349 750.12225 342.41878" fill="#a0616a" stroke-width="0"/><path d="m803.25049,358.95827l-.3186,3.16776-36.85876,9.91138s9.8421,13.09772,11.48792,15.82312,53.42773-28.54422,60.5614-34.33972.35248-11.37045.35248-11.37045l-41.55011,4.21716,6.32574,12.59073h0l-.00006.00003Z" fill="#2f2e43" stroke-width="0"/><path d="m580.16119,214.13754l-4.09241,9.67297s-8.92889,27.53079,36.83173,37.20378c45.76062,9.67297,69.57104,5.58057,69.57104,5.58057l78.87201,94.49759,20.09003-17.48578-62.83783-95.27023c-4.12866-6.25961-10.17981-11.00793-17.24164-13.52959l-94.65802-33.80051-26.53485,13.13121h-.00006v-.00002Z" fill="#2f2e41" stroke-width="0"/><polygon points="700.73383 382.4413 710.84399 408.16865 712.10309 415.81209 719.19739 422.81242 753.5791 415.13298 750.04742 398.84614 729.48792 395.7614 723.94733 381.16572 700.73383 382.4413" fill="#a0616a" stroke-width="0"/><path d="m749.11438,409.92726l-.98663,3.02701-38.12445,1.82535s6.82343,14.8949,7.85034,17.90854,58.28491-16.49734,66.49017-20.63873,2.76849-11.03391,2.76849-11.03391l-41.49396-4.73816,3.49597,13.6499h.00006Z" fill="#2f2e43" stroke-width="0"/><path d="m558.36981,213.93202l-6.06061,8.57809s-14.59308,24.99422,28.05322,44.20084c42.6463,19.2066,66.7818,20.28458,66.7818,20.28458l56.91205,109.14026,23.35608-12.80063-45.2406-117.25558-44.09961-40.46733-79.70239-11.68027.00006.00003v.00002Z" fill="#2f2e41" stroke-width="0"/><polygon points="230.85333 582.96351 240.96349 608.69093 242.22263 616.3343 249.31693 623.33467 283.69861 615.65516 280.16693 599.36842 259.60745 596.28358 254.06686 581.68794 230.85333 582.96351" fill="#fdadb0" stroke-width="0"/><path d="m279.23392,610.44948l-.98663,3.02704-38.12444,1.82532s6.82344,14.8949,7.85034,17.90851,58.28493-16.49738,66.49019-20.63873c8.20523-4.14136,2.76852-11.03387,2.76852-11.03387l-41.49396-4.73816,3.49597,13.6499h.00003-.00003Z" fill="#2f2e43" stroke-width="0"/><path d="m92.81234,419.4424l-6.06058,8.57809s-14.5931,24.99423,28.05322,44.20084c42.64632,19.20663,66.78181,20.28458,66.78181,20.28458l56.91208,109.14023,23.35605-12.80066-45.2406-117.25558-57.45889-58.8577-66.34307,6.71008-.00002.00009v.00003Z" fill="#2f2e41" stroke-width="0"/><path d="m633.5556,84.40504l-33.85541-11.16113-31.89496,34.90865c-9.91687,10.8539-15.68707,24.85818-16.29492,39.5477l-3.52338,85.14783,84.45258-15.25356s1.11609-133.1895,1.11609-133.18949Z" fill="#e6e6e6" stroke-width="0"/><path id="uuid-3e7f3ef6-3c11-46f0-85a3-6c3f88fcc01a-880" d="m668.02954,253.13534c8.84338,5.78386,18.99591,5.90923,22.6759.28067s-.50616-14.8782-9.35345-20.66293c-3.50238-2.35925-7.51892-3.84543-11.71344-4.33417l-37.77917-24.03333-10.90021,17.96904,38.40082,21.78484c2.12994,3.64799,5.10278,6.7327,8.66962,8.99586l-.00006.00002Z" fill="#a0616a" stroke-width="0"/><path d="m583.51776,101.96983h-.00006c-13.84869,1.13684-23.48486,14.26888-20.41449,27.82072l15.76288,69.57413,72.54736,42.41229,8.92889-22.69431-49.48102-36.83173-2.64899-58.54191c-.58527-12.93433-11.79047-22.7985-24.69464-21.73921l.00006.00002v-.00002Z" fill="#e6e6e6" stroke-width="0"/><circle cx="619.84271" cy="47.38346" r="29.90235" fill="#a0616a" stroke-width="0"/><path d="m634.06909,8.64268c6.58636,2.31492,10.35522,3.63957,13.80762,6.96546,5.83136,5.61796,6.79382,13.12558,7.68799,20.10133.69958,5.45716,1.60413,12.51293-1.59155,20.57431-1.09058,2.75103-6.38055,15.00798-16.50616,16.55695-1.98853.30415-6.65717.38414-5.31152-.60935,12.45392-9.19445,17.76898-14.74516,17.33319-28.91537-.27069-8.80476-13.72467-18.31097-21.71338-20.01988-3.3653-.71978-7.84558-.06222-11.05829,2.57524-6.71423,5.51205-6.4278,28.30551-13.50769,33.07028-2.91156,1.95954-.9715-11.83406-3.02313-9.59719-4.04803,4.41363-1.45142,11.17274-.724,13.74682,3.4505,12.20973,9.95581,13.40479,13.32599,23.83128,3.63861,11.25683-.9408,21.85506-2.02679,24.36825-1.88898,4.37191-5.1311,11.87501-12.53815,15.47462-9.40186,4.56897-16.81262-1.38073-21.18365,3.71996-2.44354,2.85146-1.12177,5.87135-5.53491,14.74049-1.44067,2.89519-2.16095,4.34296-2.79865,4.29156-3.01776-.24298-7.90369-24.39901-.00146-46.89538,3.31641-9.44092,6.56543-18.69062,15.27441-25.92354,4.60443-3.8239,8.46619-5.19995,9.56537-9.66548,1.57031-6.37959-4.95032-9.10251-6.25745-19.16845-.8938-6.88411-1.52094-16.72975.90973-23.04028,2.29517-5.95933,4.28766-11.13244,9.50299-15.82282,1.25256-1.12659,11.36389-8.78437,22.0849-9.00039,4.93579-.0993,8.56207,6.63031,14.28461,8.64156h.00006s-.00006.00003-.00006.00004Z" fill="#2f2e43" stroke-width="0"/><path d="m327.28751,332.99824c.01526.00739.02924.01379.04468.02118-.01135-.00574-.02216-.01123-.03265-.01654-.00409-.00153-.00793-.00311-.01202-.00464Z" fill="#fff" stroke-width="0"/><path d="m304.86533,350.95808c-.16003-.02417-.30865.03784-.40094.11078.1413-.04059.26813-.07202.36237-.08704.0127-.00806.02576-.01581.03857-.02374Z" fill="#fff" stroke-width="0"/><path d="m467.39835,332.9984c.01489.0072.02856.01355.0437.02069-.01111-.00568-.02173-.01099-.03192-.01617-.00397-.00153-.00775-.00299-.01178-.00452Z" fill="#fff" stroke-width="0"/><path d="m444.97595,350.95808c-.16003-.02417-.30853.03778-.40088.11072.14117-.04059.26807-.07196.3623-.08698.01276-.00806.02576-.01581.03857-.02374Z" fill="#fff" stroke-width="0"/><path d="m530.2868,399.03911c.01105-.00214.02209-.00458.03314-.00671-.23126-.04034-.40222-.02936-.4978-.00116.16711-.01306.32135-.00983.46466.00787Z" fill="#fff" stroke-width="0"/><path d="m535.51611,357.5937c-.25281.08789-.36694.13031-.39026.14148.12616-.04694.25305-.09204.38013-.13696.00323-.00146.00708-.00305.01013-.00452Z" fill="#fff" stroke-width="0"/><path d="m535.4765,337.50709c-.03632-.01208-.0722-.02496-.1084-.03723.45215.32233.49451.24103.30292.12653-.0683-.02649-.12079-.05658-.18542-.08557-.00336-.00116-.00568-.00256-.00909-.00372Z" fill="#fff" stroke-width="0"/><path d="m106.83654,300.21535s-6.11685-1.60971-17.7067,13.19952c-11.58985,14.80923-6.43881,120.40549-6.43881,120.40549l84.02632-18.99445-16.01788-94.55334-10.3812-21.34503-33.48175,1.28778h.00003s0,.00003,0,.00003Z" fill="#e6e6e6" stroke-width="0"/><path id="uuid-6a6f90e8-11fb-4fd4-acf7-524898dc7c05-881" d="m194.39331,402.05125l-31.8194-2.78561-1.44568,12.62424,31.93304,3.57437c2.56427,1.61502,5.47806,2.59247,8.49756,2.85052,7.54868.74957,14.052-2.53552,14.52902-7.33783s-5.2536-9.30246-12.79968-10.05075c-3.01224-.34076-6.06232.04504-8.89487,1.12506Z" fill="#fdadb0" stroke-width="0"/><polygon points="84.54834 327.96629 101.36355 404.20192 188.28729 418.36723 191.50668 396.47532 132.26978 382.30995 112.95336 315.34648 84.54834 327.96629" fill="#e6e6e6" stroke-width="0"/><path d="m295.80628,336.33228c-.26401.15288-.53568.28821-.80197.43619-1.00874.56057,1.42018-.48467.32696-.12973-.57117.18544-1.13275.36976-1.72226.49201-.58067.12041-1.32118-.02526.41688-.02807-.29469.00048-.59797.0554-.89356.06788-.60239.02544-1.19685-.01209-1.79782-.04216-1.17273-.05869,1.55245.29425.39961.0594-.29669-.06044-.59406-.11115-.88915-.18016-.59094-.1382-1.17361-.31171-1.74431-.51808-.1879-.06795-.37778-.16061-.56764-.21775,1.66475.50109.79285.33783.32482.10451-.63412-.31612-1.24714-.6748-1.83255-1.07401-.45756-.31202-.90294-.95073.24244.2174-.2073-.21142-.46716-.38844-.68674-.58887-.36968-.33744-.72227-.69405-1.05406-1.06882-.37957-.42873-.60323-1.11771.18555.28477-.14348-.25511-.34856-.48998-.50627-.73821-.15994-.25175-.31112-.50907-.45256-.77166-.09443-.1752-.18449-.35262-.27017-.53226-.2562-.56215-.17305-.35906.24944.6093-.10662-.48214-.33329-.95296-.45093-1.43769-.0712-.29336-.07898-.69136-.19138-.9653l.11914.8568c-.02468-.24541-.0426-.49131-.05376-.7377-.031-.68192.1997-1.54913.07635-2.20053l-.11332.86882c.03979-.24145.08544-.48179.13696-.72101.07775-.35948.16833-.7164.27047-1.06972.10281-.35566.23453-.70009.3452-1.05277.39337-1.25358-.63376,1.23622-.03471.06139.34161-.66994.67444-1.3351,1.07286-1.97452.19991-.32083.42059-.62634.62636-.94295.59148-.9101-.17291.31999-.25679.30511.16066.0285,1.57056-1.76541,1.78315-1.97262.27236-.26547.55187-.5236.83812-.77402l.28823-.24764c.49487-.40325.38654-.32724-.32501.22803.2324.05155,1.45513-1.00597,1.71666-1.16495.56565-.34383,1.14656-.6621,1.74018-.95504.29877-.14744.70174-.26085.97183-.45199-.88825.36862-1.03664.43498-.44516.19907.22115-.08502.44351-.16673.66709-.24512,1.22703-.43035,2.48895-.76029,3.76814-.99294.48703-.08858,1.56121-.04683-.19219-.00122.34984-.0091.71073-.0821,1.06022-.11204.82856-.07096,1.66059-.10397,2.49217-.0994.59644.00328,1.19278.02477,1.78789.06476.35829.02408.71481.06433,1.07267.09192,1.31411.10128-1.46897-.25292-.16785-.03103,1.42903.2437,2.83883.53747,4.22861.95373.69552.20832,1.38389.44053,2.06358.69581.33083.12425.67382.30942,1.01411.40068-1.55528-.41709-.54642-.22528-.10267-.01715,1.3169.61768,2.59207,1.32488,3.81199,2.11712.55781.36225,1.17531,1.00535,1.7839,1.24946l-.6406-.49452c.18935.15007.37688.30239.56257.45697.18541.15455.36927.3112.55098.47012,1.22221,1.06888,2.3518,2.24158,3.39514,3.48513.05016.05979.74178.88031.72601.8954.0026-.00249-.8477-1.13208-.13089-.14139.41188.56926.80706,1.15035,1.18486,1.7428.8591,1.34719,1.62862,2.75055,2.31095,4.19517.13677.28957.26535.58275.40009.87322.57508,1.23975-.49029-1.29481-.00825-.01477.272.72228.55071,1.44.79676,2.17191.49363,1.46837.90753,2.96343,1.24528,4.47522.16953.75883.31978,1.52195.45128,2.28828.04611.26872.03542.93204.18341,1.15352l-.10758-.82318c.03352.25768.06499.51561.09439.7738.17655,1.54998.27901,3.10838.30962,4.66806.028,1.4273-.00426,2.85582-.09601,4.28045-.04986.77414-.11739,1.54713-.20235,2.31821-.04699.42649-.33261,1.64264.03325-.13954-.0977.47592-.14115.96907-.22114,1.44881-.46146,2.76768-1.1412,5.49836-2.02046,8.16273-.45853,1.38948-1.08387,2.72621-1.53642,4.11282.53203-1.63011.19278-.46852.02291-.08953-.14976.33414-.3027.66686-.45876.9981-.3122.66266-.63694,1.31941-.97386,1.96985-1.52222,2.93869-3.30902,5.69939-5.26443,8.36586-.78057,1.06441.86815-1.08306.0423-.05339-.22942.28604-.45773.57266-.69049.856-.54292.66088-1.10051,1.30976-1.67165,1.9464-1.06029,1.1819-2.16808,2.32125-3.32033,3.41371-1.24192,1.17747-2.54274,2.28009-3.87052,3.35859-.98176.79744.87843-.65307.20152-.15395-.34364.25338-.68347.51165-1.0297.76161-.69219.49973-1.39568.9838-2.10994,1.45144-2.75966,1.80684-5.67711,3.35403-8.71434,4.63965-1.22912.52027-2.47182,2.33217-2.75736,3.58579-.30559,1.34167-.23515,2.63285.30243,3.90671,1.17762,2.79053,4.13517,4.17369,7.07829,3.474,1.83295-.43576,3.6764-.76925,5.53335-1.08164.67409-.09699.57193-.08595-.30649.03314.28673-.03742.5737-.07296.86091-.1066.43079-.05047.86209-.09682,1.29381-.13866.86349-.08368,1.72855-.15095,2.59464-.20106,3.82622-.22138,7.67093-.11286,11.47913.31796.42619.04821,1.98849.01265.34184.03273.41629-.00507.87922.12967,1.2869.19586.92798.15067,1.85276.32039,2.77373.50931,1.84169.37779,3.66729.83236,5.47084,1.36319,1.80322.53073,3.58375,1.13749,5.33531,1.81968.46801.18228.95621.34785,1.40825.56697l-.63464-.266c.26547.11473.53017.23123.79408.34949.92409.41412,1.83631.85267,2.74135,1.30684,2.80189,1.40604,6.62986.8366,8.20914-2.15251,1.43871-2.72304.84247-6.7062-2.15251-8.20914-15.49978-7.7781-33.33172-9.9258-50.21969-5.91091l4.62335,10.9665c12.43224-5.26243,22.92969-15.11639,29.59442-26.79924,7.11857-12.47838,9.90302-27.17621,7.10938-41.32008-1.45409-7.36188-4.6793-14.19625-9.36317-20.03904-4.48532-5.59512-10.73789-9.62057-17.52908-11.82799-6.64122-2.15866-14.30582-2.42404-20.95449-.14739-7.77109,2.661-13.94164,8.18659-16.99159,15.85528-2.80771,7.05959-1.14847,15.4082,4.37477,20.66492,5.05868,4.81458,12.37477,7.01937,19.2149,5.42713,1.66272-.38705,3.29892-1.09084,4.77251-1.94413,2.71704-1.57332,3.90356-5.49313,2.15251-8.20914-1.76685-2.74052-5.30198-3.83591-8.20914-2.15251h0Z" fill="#fff" stroke-width="0"/><path d="m439.61025,336.33228c-.26401.15288-.53568.28821-.80197.43619-1.00874.56057,1.42018-.48467.32696-.12973-.57117.18544-1.13275.36976-1.72226.49201-.58067.12041-1.32118-.02526.41688-.02807-.29469.00048-.59797.0554-.89356.06788-.60239.02544-1.19685-.01209-1.79782-.04216-1.17273-.05869,1.55245.29425.39961.0594-.29669-.06044-.59406-.11115-.88915-.18016-.59094-.1382-1.17361-.31171-1.74431-.51808-.1879-.06795-.37778-.16061-.56764-.21775,1.66475.50109.79285.33783.32482.10451-.63412-.31612-1.24714-.6748-1.83255-1.07401-.45756-.31202-.90294-.95073.24244.2174-.2073-.21142-.46716-.38844-.68674-.58887-.36968-.33744-.72227-.69405-1.05406-1.06882-.37957-.42873-.60323-1.11771.18555.28477-.14348-.25511-.34856-.48998-.50627-.73821-.15994-.25175-.31112-.50907-.45256-.77166-.09443-.1752-.18449-.35262-.27017-.53226-.2562-.56215-.17305-.35906.24944.6093-.10662-.48214-.33329-.95296-.45093-1.43769-.0712-.29336-.07898-.69136-.19138-.9653l.11914.8568c-.02468-.24541-.0426-.49131-.05376-.7377-.031-.68192.1997-1.54913.07635-2.20053l-.11332.86882c.03979-.24145.08544-.48179.13696-.72101.07775-.35948.16833-.7164.27047-1.06972.10281-.35566.23453-.70009.3452-1.05277.39337-1.25358-.63376,1.23622-.03471.06139.34161-.66994.67444-1.3351,1.07286-1.97452.19991-.32083.42059-.62634.62636-.94295.59148-.9101-.17291.31999-.25679.30511.16066.0285,1.57056-1.76541,1.78315-1.97262.27236-.26547.55187-.5236.83812-.77402l.28823-.24764c.49487-.40325.38654-.32724-.32501.22803.2324.05155,1.45513-1.00597,1.71666-1.16495.56565-.34383,1.14656-.6621,1.74018-.95504.29877-.14744.70174-.26085.97183-.45199-.88825.36862-1.03664.43498-.44516.19907.22115-.08502.44351-.16673.66709-.24512,1.22703-.43035,2.48895-.76029,3.76814-.99294.48703-.08858,1.56121-.04683-.19219-.00122.34984-.0091.71073-.0821,1.06022-.11204.82856-.07096,1.66059-.10397,2.49217-.0994.59644.00328,1.19278.02477,1.78789.06476.35829.02408.71481.06433,1.07267.09192,1.31411.10128-1.46897-.25292-.16785-.03103,1.42903.2437,2.83883.53747,4.22861.95373.69552.20832,1.38389.44053,2.06358.69581.33083.12425.67382.30942,1.01411.40068-1.55528-.41709-.54642-.22528-.10267-.01715,1.3169.61768,2.59207,1.32488,3.81199,2.11712.55781.36225,1.17531,1.00535,1.7839,1.24946l-.6406-.49452c.18935.15007.37688.30239.56257.45697.18541.15455.36927.3112.55098.47012,1.22221,1.06888,2.3518,2.24158,3.39514,3.48513.05016.05979.74178.88031.72601.8954.0026-.00249-.8477-1.13208-.13089-.14139.41188.56926.80706,1.15035,1.18486,1.7428.8591,1.34719,1.62862,2.75055,2.31095,4.19517.13677.28957.26535.58275.40009.87322.57508,1.23975-.49029-1.29481-.00825-.01477.272.72228.55071,1.44.79676,2.17191.49363,1.46837.90753,2.96343,1.24528,4.47522.16953.75883.31978,1.52195.45128,2.28828.04611.26872.03542.93204.18341,1.15352l-.10758-.82318c.03352.25768.06499.51561.09439.7738.17655,1.54998.27901,3.10838.30962,4.66806.028,1.4273-.00426,2.85582-.09601,4.28045-.04986.77414-.11739,1.54713-.20235,2.31821-.04699.42649-.33261,1.64264.03325-.13954-.0977.47592-.14115.96907-.22114,1.44881-.46146,2.76768-1.1412,5.49836-2.02046,8.16273-.45853,1.38948-1.08387,2.72621-1.53642,4.11282.53203-1.63011.19278-.46852.02291-.08953-.14976.33414-.3027.66686-.45876.9981-.3122.66266-.63694,1.31941-.97386,1.96985-1.52222,2.93869-3.30902,5.69939-5.26443,8.36586-.78057,1.06441.86815-1.08306.0423-.05339-.22942.28604-.45773.57266-.69049.856-.54292.66088-1.10051,1.30976-1.67165,1.9464-1.06029,1.1819-2.16808,2.32125-3.32033,3.41371-1.24192,1.17747-2.54274,2.28009-3.87052,3.35859-.98176.79744.87843-.65307.20152-.15395-.34364.25338-.68347.51165-1.0297.76161-.69219.49973-1.39568.9838-2.10994,1.45144-2.75966,1.80684-5.67711,3.35403-8.71434,4.63965-1.22912.52027-2.47182,2.33217-2.75736,3.58579-.30559,1.34167-.23515,2.63285.30243,3.90671,1.17762,2.79053,4.13517,4.17369,7.07829,3.474,1.83295-.43576,3.6764-.76925,5.53335-1.08164.67409-.09699.57193-.08595-.30649.03314.28673-.03742.5737-.07296.86091-.1066.43079-.05047.86209-.09682,1.29381-.13866.86349-.08368,1.72855-.15095,2.59464-.20106,3.82622-.22138,7.67093-.11286,11.47913.31796.42619.04821,1.98849.01265.34184.03273.41629-.00507.87922.12967,1.2869.19586.92798.15067,1.85276.32039,2.77373.50931,1.84169.37779,3.66729.83236,5.47084,1.36319,1.80322.53073,3.58375,1.13749,5.33531,1.81968.46801.18228.95621.34785,1.40825.56697l-.63464-.266c.26547.11473.53017.23123.79408.34949.92409.41412,1.83631.85267,2.74135,1.30684,2.80189,1.40604,6.62986.8366,8.20914-2.15251,1.43871-2.72304.84247-6.7062-2.15251-8.20914-15.49978-7.7781-33.33172-9.9258-50.21969-5.91091l4.62335,10.9665c12.43224-5.26243,22.92969-15.11639,29.59442-26.79924,7.11857-12.47838,9.90302-27.17621,7.10938-41.32008-1.45409-7.36188-4.6793-14.19625-9.36317-20.03904-4.48532-5.59512-10.73789-9.62057-17.52908-11.82799-6.64122-2.15866-14.30582-2.42404-20.95449-.14739-7.77109,2.661-13.94164,8.18659-16.99159,15.85528-2.80771,7.05959-1.14847,15.4082,4.37477,20.66492,5.05868,4.81458,12.37477,7.01937,19.2149,5.42713,1.66272-.38705,3.29892-1.09084,4.77251-1.94413,2.71704-1.57332,3.90356-5.49313,2.15251-8.20914-1.76685-2.74052-5.30198-3.83591-8.20914-2.15251h0Z" fill="#fff" stroke-width="0"/><path d="m384.60645,303.04473c-8.70406-4.82133-18.87945-2.22771-26.20435,3.84362-7.55365,6.26093-10.23649,16.56302-10.70679,25.9654-.48947,9.78563.94579,19.88078,3.11245,29.40241,2.25599,9.9142,5.77017,19.54668,10.2847,28.65393,3.86308,7.79306,9.00341,16.19586,17.0555,20.23316,4.79219,2.4028,10.05303,3.13942,15.29343,1.87933,4.79856-1.15385,9.38166-4.06809,12.66713-7.7228,7.02387-7.81326,9.64559-18.39972,10.88927-28.57127,1.20161-9.82748.35969-20.00518-2.23918-29.5515-1.31812-4.84181-3.26134-9.42681-5.26103-14.01872-1.46633-3.36716-2.96644-6.72769-4.71178-9.9615-3.71212-6.87789-8.68862-12.67142-15.03147-17.24075-1.60009-1.15269-3.27477-2.19338-4.99169-3.16208-2.73412-1.54262-6.6799-.74188-8.20914,2.15251-1.50023,2.83949-.76722,6.5618,2.15251,8.20914,1.61517.91129,3.19328,1.88567,4.7067,2.95845.37535.26607.73598.56716,1.11993.81976.05286.03477-1.04102-.82417-.54128-.41841.17387.14117.35088.27853.5246.41993.63627.51789,1.25761,1.05409,1.86134,1.60962,1.15911,1.06656,2.2534,2.20329,3.27513,3.40211.26724.31356.52389.63517.78654.95245.63074.76193-.89447-1.22202-.0911-.11806.45363.62336.90504,1.24655,1.3339,1.88745,1.78568,2.66857,3.29241,5.51271,4.67677,8.40648.75732,1.58304,1.47861,3.1831,2.18609,4.78894.37519.85162.74617,1.70508,1.11567,2.55918.17782.41102.35522.82222.53252,1.23346.10016.23234.18761.4979.30875.71658-.20006-.36115-.36497-.89126-.08934-.20435,1.65607,4.12717,2.96444,8.37474,3.85434,12.73371.22212,1.088.41899,2.18112.5912,3.27811.03444.21942.06653.43918.10066.65864.17168,1.10367.00286-.10957-.03168-.27502.11963.57303.1452,1.18203.20612,1.76482.23089,2.20899.36141,4.42864.39077,6.64947.02936,2.22054-.04239,4.44262-.21608,6.65657-.0869,1.10771-.21535,2.20928-.33735,3.31333-.07681.69512.06072-.47462.06827-.49448-.08787.2312-.08961.61967-.1294.87869-.08992.58524-.18712,1.16941-.29162,1.75223-.3856,2.15055-.86726,4.28591-1.45724,6.38976-.28264,1.00788-.59205,2.00832-.93424,2.9976-.15962.46147-.3258.92067-.50044,1.37668-.08381.21883-.28275.56429-.30665.77783.03575-.31939.44945-1.01256.11538-.28054-.86393,1.89306-1.84135,3.72361-3.04774,5.4232-.13665.19252-.31233.49653-.4907.6691.10227-.09895.86669-1.04042.16108-.23939-.31153.35365-.61522.71126-.9403,1.05315-.67839.71348-1.57487,1.29132-2.20935,2.02679.73067-.84697.65621-.4763.25419-.21585-.22368.14491-.43826.30452-.66158.45028-.39017.25466-.78932.49538-1.19606.72257-.406.22678-.82565.42363-1.23863.63645-.50085.2581-.63529-.009.34081-.1352-.23774.03074-.51331.19415-.74208.27234-.49685.16982-1.00217.31792-1.51259.44118-.2472.0597-1.76693.29743-.74683.18269.96713-.10878-.48012.02564-.76821.03593-.52685.01882-1.05518.00938-1.58103-.02846-.18583-.01337-.52859-.09579-.72861-.07046.12273-.01555,1.50221.2732.52427.04602-.40653-.09444-.81283-.1758-1.21554-.28824-.39897-.11139-.78586-.2559-1.18069-.37917-.39331-.1228-.86536-.49777.44963.20921-.20627-.1109-.43077-.19477-.64148-.29779-.79931-.39079-1.56782-.843-2.30458-1.34137-.14868-.10058-.29391-.20606-.44246-.30678-.82268-.55781.28406.1916.34877.28727-.2393-.35377-.78732-.64497-1.11566-.93753-1.40905-1.25546-2.55079-2.69425-3.80084-4.09397,1.14568,1.28286.0416.03153-.1975-.30323-.25761-.36067-.50939-.72549-.75651-1.09342-.52797-.78607-1.033-1.58742-1.51798-2.40069-2.20741-3.70168-4.05746-7.62046-5.78654-11.56371-.44063-1.00487-.00209.01415.07306.18443-.12155-.2754-.23256-.5576-.34679-.83583-.20049-.48832-.39761-.97801-.59175-1.46888-.41602-1.05188-.81762-2.10946-1.20432-3.17248-.7734-2.12605-1.48793-4.27359-2.14262-6.43914-1.30938-4.33111-2.37954-8.7347-3.20284-13.18388-.20582-1.11227-.39601-2.22742-.57085-3.34498-.0816-.52155-.15537-1.04423-.23482-1.56608-.06274-.41206.06056-.98482.02945.25033.00727-.28851-.07925-.61058-.11491-.89758-.27891-2.24503-.49511-4.49793-.64761-6.75508-.2829-4.1872-.31071-8.37629.15388-12.55135.12923-1.16138-.07696.31397-.04949.36276-.04627-.08215.12524-.79321.12918-.81659.0799-.47417.16853-.94684.26571-1.41777.20708-1.00349.45402-1.99896.7483-2.98052.15618-.52092.32535-1.03829.50844-1.55038.07868-.22007.65776-1.67035.2906-.80052-.32695.77456-.04809.11708.02219-.03041.11695-.24543.22924-.49267.34954-.73649.24106-.4886.49699-.97015.76804-1.44279.27259-.47532.55996-.94342.86388-1.39939.13327-.19994.97323-1.33479.33584-.5097-.60403.7819.22958-.25353.41257-.45896.30813-.3459.62837-.68131.95919-1.00558.33175-.32518.67473-.63951,1.02728-.94202.1323-.11352.27057-.22078.40184-.33536.5739-.50095-1.0128.73115-.38724.29619.71757-.49892,1.42996-.99056,2.19263-1.42018.40293-.22697.81368-.44095,1.23082-.64062.15589-.07462.31517-.14246.47086-.21732.69018-.33191-1.20097.45715-.47934.2066.80958-.28109,1.60681-.56503,2.44224-.76457.42976-.10265.90341-.13725,1.32427-.26377.06754-.02031-1.41787.14804-.76379.10385.22198-.015.44332-.04365.66556-.05845.83447-.0556,1.65264-.01652,2.48542.0325.97836.0576-.53975-.05043-.6126-.08445.15844.07398.49409.09135.649.12511.37786.08237.75171.18185,1.12112.29615.1586.04907.31478.11017.47425.15579.90619.25926-.40229-.16538-.49896-.23533.34599.25034.83411.40171,1.21301.61158,2.74551,1.52079,6.67182.75718,8.20914-2.15251,1.4903-2.8207.77975-6.58491-2.15251-8.20914h0Z" fill="#fff" stroke-width="0"/><path d="m557.2477,306.97864c-16.10305,1.37699-32.20609,2.75399-48.30914,4.13098-1.94918.16668-3.49618.79119-4.71173,2.36452-1.12203,1.45228-1.65487,3.42088-1.07394,5.23052,5.07038,15.79474,10.14076,31.58948,15.21115,47.38422.99135,3.08816,4.13949,5.07975,7.38071,4.19064,2.6467-.72603,5.29459-1.45093,7.9651-2.08527,1.2557-.29827,2.51601-.57806,3.78242-.82726.63157-.12428,1.26451-.242,1.899-.35042.31676-.05413.63391-.10653.9514-.15624.24295-.03804,1.8321-.36516.31149-.05569,2.60637-.53045,5.51099-.48774,8.15578-.36108.50038.02396,1.00026.05879,1.49915.10424.25041.02281.50008.05135.75021.07699.62483.06406.38907.3291-.47089-.06754.40279.18577,1.0498.16885,1.493.25452.55815.10789,1.11331.23101,1.66505.36787,1.04035.25806,2.06777.56731,3.07642.93017.23658.08511.47044.1769.7061.26448.66151.24582.05151.3091-.38974-.17533.28062.30809,1.14245.52425,1.52516.71912.88492.4506,1.74458.94967,2.57133,1.49991.16994.1131,1.54279,1.12612.74476.50289-.71794-.56068-.0618-.03898.11335.10802.28269.23725.5592.48117.8296.73234.72598.67437,1.37306,1.40555,2.0173,2.15608.50685.59046-.69016-.98057-.26155-.32891.13657.20765.28729.40655.425.61378.29754.44773.57732.90719.83535,1.37888.22662.41427.4258.83979.63256,1.26391.435.89231-.17406-.36195-.1944-.46142.0427.20888.17114.45066.24363.65818.34666.99249.61586,2.01231.80613,3.04623.03718.20207.04909.48995.11608.69214-.40517-1.22298-.12713-1.07573-.08216-.54907.04001.46854.08087.93583.09917,1.40597.04138,1.06305.00962,2.12836-.0895,3.1875-.02193.23436-.06596.47483-.07703.70876.00468-.09882.25767-1.53173.06087-.53423-.09251.4689-.16952.94021-.27413,1.40693-.23622,1.05397-.53687,2.09311-.89793,3.11106-.08048.22689-.16787.45099-.25076.67698-.17178.46832-.47995.58724.19483-.43021-.25462.38392-.4022.89519-.60867,1.31114-.45508.91679-.96362,1.80712-1.52093,2.66555-.2867.44161-.67645.86978-.92444,1.33311.05161-.09643.91838-1.12129.27718-.36052-.15451.18333-.30394.37034-.45991.55259-.68661.80231-1.42743,1.55641-2.20516,2.27038-.38382.35235-.77667.6942-1.17846,1.02591-1.14279.94346.87287-.615-.32597.25252-.9454.68412-1.92879,1.3144-2.94285,1.89179-.90329.51432-1.83015.98611-2.77603,1.41705-1.36394.62139,1.03053-.39125-.36699.15765-.54761.21509-1.10004.41796-1.65704.60744-2.11774.7204-4.29565,1.26192-6.50048,1.63754-.26055.04439-.52207.08241-.78262.12656-1.04852.17766.28379-.04275.41666-.04982-.52491.02793-1.05342.12432-1.57747.17265-1.18405.10919-2.37199.17454-3.56083.19761-1.28574.02496-2.57187-.00294-3.85574-.0752-.69849-.03931-1.39629-.09074-2.09294-.15493-.58732-.05412-1.81418.04712-2.31413-.25614.09364.0568,1.41362.21556.21216.02106-.38291-.06199-.76657-.1189-1.14919-.18286-.68891-.11516-1.37621-.23993-2.06161-.37447-1.52564-.29949-3.04212-.64434-4.54948-1.02509-5.75528-1.45376-11.35943-3.43483-16.92515-5.48321-2.95056-1.08591-6.70257,1.2133-7.38071,4.19064-.77287,3.39324,1.03156,6.21806,4.19064,7.38071,10.92319,4.02012,22.19655,7.72076,33.95098,7.95801,10.79993.21798,21.58316-2.7739,30.07997-9.55588,7.74513-6.18201,12.58656-16.5255,11.88417-26.48294-.40083-5.68235-2.32982-10.74969-5.8652-15.21017-3.33222-4.20416-8.00213-6.99568-12.93762-8.91955-12.36034-4.8181-25.90748-1.45704-38.16439,1.90521,2.46024,1.39688,4.92047,2.79376,7.38071,4.19064-5.07038-15.79474-10.14076-31.58948-15.21115-47.38422l-5.78567,7.59504c16.10305-1.37699,32.20609-2.75399,48.30914-4.13098,3.11903-.26671,6.15369-2.56856,6-6-.13534-3.02164-2.65104-6.28637-6-6h0Z" fill="#fff" stroke-width="0"/></svg>
