<svg width="18" height="18" viewBox="0 0 18 18" fill="none" xmlns="http://www.w3.org/2000/svg">
<path d="M8.25 1.5H6.75C3 1.5 1.5 3 1.5 6.75V11.25C1.5 15 3 16.5 6.75 16.5H11.25C15 16.5 16.5 15 16.5 11.25V9.75" stroke="#292D32" stroke-width="1.5" stroke-linecap="round" stroke-linejoin="round"/>
<path d="M12.0299 2.26495L6.11991 8.17495C5.89491 8.39995 5.66991 8.84245 5.62491 9.16495L5.30241 11.4224C5.18241 12.2399 5.75991 12.8099 6.57741 12.6974L8.83491 12.3749C9.14991 12.3299 9.59241 12.1049 9.82491 11.8799L15.7349 5.96995C16.7549 4.94995 17.2349 3.76495 15.7349 2.26495C14.2349 0.764945 13.0499 1.24495 12.0299 2.26495Z" stroke="#292D32" stroke-width="1.5" stroke-miterlimit="10" stroke-linecap="round" stroke-linejoin="round"/>
<path d="M11.1826 3.1123C11.6851 4.9048 13.0876 6.3073 14.8876 6.8173" stroke="#292D32" stroke-width="1.5" stroke-miterlimit="10" stroke-linecap="round" stroke-linejoin="round"/>
</svg>
