<svg width="74" height="74" viewBox="0 0 74 74" fill="none" xmlns="http://www.w3.org/2000/svg">
<path d="M2 17L37 32L54.5 24.5L72 17L37 2L19.5 9.5L2 17Z" fill="white" fill-opacity="0.8"/>
<path d="M37 72V32L2 17V57L37 72Z" fill="white" fill-opacity="0.8"/>
<path d="M37 32V72L72 57V17L54.5 24.5L37 32Z" fill="#692DB6"/>
<path d="M37 72V32M37 72L2 57V17M37 72L72 57V17M37 32L54.5 24.5M37 32L2 17M2 17L19.5 9.5M72 17L54.5 24.5M72 17L37 2L19.5 9.5M54.5 24.5L19.5 9.5" stroke="#222222" stroke-width="2.5" stroke-linecap="round" stroke-linejoin="round"/>
<path d="M51 36.9999L60 32.9999" stroke="white" stroke-opacity="0.8" stroke-width="2.5" stroke-linecap="round"/>
</svg>
