<svg width="446" height="388" viewBox="0 0 446 388" fill="none" xmlns="http://www.w3.org/2000/svg">
<g clip-path="url(#clip0_2903_32986)">
<path d="M384.191 98.1577H329.398C324.792 98.1577 321.045 94.4134 321.045 89.8109V35.0563C321.045 30.4539 324.792 26.7096 329.398 26.7096H384.191C388.796 26.7096 392.543 30.4539 392.543 35.0563V89.8109C392.543 94.4134 388.796 98.1577 384.191 98.1577ZM329.398 28.0451C325.523 28.0451 322.381 31.1841 322.381 35.0563V89.8109C322.381 93.6831 325.523 96.8222 329.398 96.8222H367.779C380.718 96.8222 391.207 86.3405 391.207 73.4106V35.0563C391.207 31.1841 388.066 28.0451 384.191 28.0451H329.398Z" fill="#F2F2F2"/>
<path d="M384.191 98.1577H329.398C324.792 98.1577 321.045 94.4134 321.045 89.8109V35.0563C321.045 30.4539 324.792 26.7096 329.398 26.7096H384.191C388.796 26.7096 392.543 30.4539 392.543 35.0563V89.8109C392.543 94.4134 388.796 98.1577 384.191 98.1577Z" fill="#9747FF"/>
<path d="M356.46 14.6903C360.519 14.6903 363.81 11.4017 363.81 7.34513C363.81 3.28853 360.519 0 356.46 0C352.4 0 349.11 3.28853 349.11 7.34513C349.11 11.4017 352.4 14.6903 356.46 14.6903Z" fill="#F2F2F2"/>
<path d="M312.377 206.14H257.584C252.978 206.14 249.231 202.396 249.231 197.793V143.039C249.231 138.436 252.978 134.692 257.584 134.692H312.377C316.982 134.692 320.729 138.436 320.729 143.039V197.793C320.729 202.396 316.982 206.14 312.377 206.14ZM257.584 136.028C253.709 136.028 250.567 139.167 250.567 143.039V197.793C250.567 201.666 253.709 204.805 257.584 204.805H257.584C291.72 204.805 319.393 177.151 319.393 143.039V143.039C319.393 139.167 316.252 136.028 312.377 136.028H257.584Z" fill="#F2F2F2"/>
<path d="M284.646 122.673C288.706 122.673 291.996 119.384 291.996 115.328C291.996 111.271 288.706 107.983 284.646 107.983C280.587 107.983 277.296 111.271 277.296 115.328C277.296 119.384 280.587 122.673 284.646 122.673Z" fill="#F2F2F2"/>
<path d="M286.887 166.728C284.423 167.383 281.557 165.714 281.037 163.179C280.496 160.545 282.83 157.682 285.514 157.663C288.238 157.643 290.594 160.386 290.151 163.064C289.87 164.763 288.82 166.244 287.867 167.634C286.805 169.182 285.695 170.697 284.551 172.186C281.962 175.553 279.199 178.782 276.443 182.013C275.857 182.701 276.268 183.642 277.152 183.723L292.831 185.156C294.115 185.274 294.107 183.27 292.831 183.153L277.152 181.72L277.861 183.429C280.897 179.87 283.929 176.305 286.756 172.575C288.109 170.791 289.474 168.98 290.637 167.065C291.66 165.379 292.436 163.457 292.141 161.454C291.631 158 288.196 155.227 284.692 155.73C281.211 156.23 278.527 159.788 279.029 163.267C279.579 167.085 283.754 169.633 287.42 168.66C288.665 168.329 288.137 166.396 286.887 166.728V166.728Z" fill="#F2F2F2"/>
<path d="M437.647 273.105H382.854C378.249 273.105 374.502 269.361 374.502 264.759V210.004C374.502 205.401 378.249 201.657 382.854 201.657H437.647C442.253 201.657 446 205.401 446 210.004V264.759C446 269.361 442.253 273.105 437.647 273.105ZM382.854 202.993C378.979 202.993 375.838 206.132 375.838 210.004V264.759C375.838 268.631 378.979 271.77 382.854 271.77H382.854C416.991 271.77 444.664 244.116 444.664 210.004V210.004C444.664 206.132 441.522 202.993 437.647 202.993H382.854Z" fill="#F2F2F2"/>
<path d="M409.917 189.638C413.976 189.638 417.267 186.349 417.267 182.293C417.267 178.236 413.976 174.948 409.917 174.948C405.857 174.948 402.566 178.236 402.566 182.293C402.566 186.349 405.857 189.638 409.917 189.638Z" fill="#F2F2F2"/>
<path d="M404.164 225.671C407.593 223.928 412.156 225.203 413.409 229.048C413.946 230.696 413.769 232.522 412.686 233.916C411.577 235.345 409.849 236.115 408.052 235.935V237.939C410.294 238.083 412.544 238.892 414.121 240.54C415.555 242.038 416.278 244.313 415.697 246.339C415.135 248.304 413.252 249.764 411.212 249.87C409.179 249.976 407.165 248.674 406.403 246.788C405.926 245.608 403.986 246.124 404.47 247.321C406.177 251.543 411.382 253.27 415.122 250.463C418.937 247.599 418.549 241.963 415.259 238.844C413.31 236.996 410.696 236.106 408.052 235.935C406.751 235.851 406.788 237.812 408.052 237.939C410.439 238.177 412.794 237.02 414.247 235.147C415.707 233.265 416.074 230.773 415.342 228.516C413.681 223.395 407.758 221.6 403.152 223.941C402.002 224.526 403.015 226.254 404.164 225.671Z" fill="#F2F2F2"/>
<path d="M105.548 277.779H50.7545C46.1488 277.779 42.4019 274.035 42.4019 269.433V214.678C42.4019 210.076 46.1488 206.331 50.7545 206.331H105.548C110.153 206.331 113.9 210.076 113.9 214.678V269.433C113.9 274.035 110.153 277.779 105.548 277.779Z" fill="#3F3D56"/>
<path d="M84.8679 215.382C88.2115 213.636 89.5058 209.512 87.7587 206.17C87.5828 205.834 87.377 205.524 87.1563 205.231L96.2381 144.232L82.8122 144.318L77.2097 204.199C74.8884 206.226 74.1592 209.642 75.6501 212.493C77.3972 215.834 81.5242 217.128 84.8679 215.382H84.8679Z" fill="#FFB6B6"/>
<path d="M87.0663 101.655C87.0663 101.655 83.0535 100.564 82.4703 109.35C82.0034 116.383 74.9901 159.235 76.951 168.824C74.4454 169.978 72.9347 172.71 73.4547 175.546L93.7279 173.726C96.509 170.049 96.5234 165.931 94.9297 165.071L96.5578 152.444L105.968 111.311L89.9809 102.393L87.0663 101.655Z" fill="#E6E6E6"/>
<path d="M100.363 371.729L108.067 371.728L111.732 342.033L100.362 342.034L100.363 371.729Z" fill="#FFB6B6"/>
<path d="M110.631 372.422V367.203L108.606 367.326L100.361 367.814L98.4529 367.931L96.9942 385.411L96.916 386.348H102.386L102.562 385.418L103.357 381.188L105.408 385.418L105.857 386.348H120.36C121.226 386.348 122.014 386.01 122.594 385.45C123.226 384.858 123.616 384.019 123.616 383.088C124.229 380.231 112.168 374.055 110.631 372.422H110.631Z" fill="#2F2E41"/>
<path d="M66.5361 362.886L75.1441 364.585L83.1626 337.208L74.522 334.284L66.5361 362.886Z" fill="#FFB6B6"/>
<path d="M76.2398 366.312L77.6436 361.284L75.6595 360.86L67.5871 359.115L65.7177 358.716L59.611 375.16L59.2837 376.042L64.5527 377.511L64.9724 376.662L66.8754 372.801L67.7135 377.426L67.896 378.444L81.8653 382.339C82.6995 382.572 83.5495 382.457 84.2583 382.074C85.0261 381.673 85.6282 380.97 85.8786 380.073C87.2366 377.486 77.2808 368.298 76.2398 366.312Z" fill="#2F2E41"/>
<path d="M138.52 204.375L138.718 202.293L130.149 178.816L93.6311 185.853C93.6311 185.853 74.81 209.022 78.9953 224.358C80.1304 228.517 82.5564 277.538 81.826 279.115C65.0045 315.421 69.7039 341.031 69.7039 341.031C69.7039 341.031 75.0204 345.664 84.1273 347.961C86.5035 348.56 104.572 267.111 104.572 267.111C104.572 267.111 103.776 272.194 102.666 279.922C99.2373 303.796 93.851 351.86 98.6366 354.348C104.971 357.642 111.031 357.031 111.031 357.031C111.031 357.031 130.781 297.73 126.596 283.789" fill="#2F2E41"/>
<path d="M120.582 103.5L109.304 91.3782L100.73 90.88L89.1767 102.832L84.8929 114.905V114.905C80.0975 126.546 79.0007 139.378 81.7512 151.662L88.3314 181.051C88.3314 181.051 89.3449 184.514 86.6891 184.93C84.0332 185.346 84.3517 190.451 84.3517 190.451C84.3517 190.451 84.8925 194.875 82.3136 195.265C79.7347 195.654 72.858 195.654 78.8754 203.386C84.8929 211.117 132.487 181.876 132.487 181.876L132.718 145.63C132.718 145.63 146.124 127.636 131.687 117.331L120.582 103.5Z" fill="#E6E6E6"/>
<path d="M148.981 231.038H94.1881C89.5824 231.038 85.8354 227.293 85.8354 222.691V167.936C85.8354 163.334 89.5824 159.59 94.1881 159.59H148.981C153.587 159.59 157.334 163.334 157.334 167.936V222.691C157.334 227.293 153.587 231.038 148.981 231.038Z" fill="#9747FF"/>
<path d="M140.659 204.11C143.183 201.308 142.957 196.992 140.153 194.469C139.871 194.215 139.57 193.997 139.261 193.798L126.483 133.464L113.93 138.224L129.579 196.298C128.111 199.007 128.62 202.463 131.012 204.615C133.815 207.137 138.135 206.911 140.659 204.11H140.659Z" fill="#FFB6B6"/>
<path d="M115.315 103.183C115.315 103.183 119.104 101.469 121.076 110.05C122.654 116.92 136.386 158.116 135.974 167.894C138.631 168.636 140.556 171.094 140.494 173.977L120.188 175.396C116.858 172.207 116.19 168.144 117.627 167.041L114.013 154.833L98.1875 115.715L112.555 104.373L115.315 103.183V103.183Z" fill="#E6E6E6"/>
<path d="M135.807 375.921C137.188 376.007 137.95 374.293 136.906 373.295L136.802 372.882C136.816 372.849 136.83 372.816 136.843 372.783C138.239 369.456 142.971 369.479 144.355 372.811C145.584 375.767 147.148 378.729 147.533 381.856C147.706 383.236 147.628 384.642 147.321 385.996C150.2 379.712 151.715 372.851 151.715 365.95C151.715 364.216 151.62 362.482 151.426 360.753C151.266 359.338 151.046 357.932 150.761 356.539C149.22 349.009 145.884 341.837 141.072 335.846C138.759 334.583 136.83 332.607 135.664 330.24C135.246 329.386 134.918 328.467 134.762 327.531C135.025 327.566 135.755 323.559 135.556 323.313C135.923 322.757 136.58 322.48 136.981 321.938C138.973 319.238 141.719 319.709 143.152 323.378C146.214 324.922 146.244 327.483 144.365 329.946C143.17 331.513 143.006 333.634 141.957 335.312C142.065 335.45 142.177 335.583 142.285 335.721C144.263 338.257 145.975 340.983 147.417 343.847C147.01 340.664 147.612 336.83 148.638 334.358C149.806 331.542 151.995 329.171 153.924 326.736C156.24 323.812 160.989 325.088 161.397 328.795C161.401 328.831 161.405 328.867 161.408 328.903C161.122 329.064 160.841 329.236 160.567 329.417C159.004 330.45 159.544 332.872 161.397 333.157L161.439 333.164C161.335 334.195 161.158 335.217 160.899 336.222C163.373 345.781 158.032 349.262 150.407 349.419C150.239 349.505 150.075 349.591 149.907 349.673C150.679 351.847 151.296 354.077 151.754 356.337C152.164 358.333 152.449 360.352 152.608 362.379C152.807 364.936 152.79 367.507 152.574 370.06L152.587 369.97C153.135 367.158 154.663 364.531 156.881 362.711C160.186 359.998 164.855 358.999 168.42 356.819C170.136 355.769 172.335 357.126 172.036 359.114L172.021 359.209C171.49 359.425 170.972 359.675 170.472 359.955C170.185 360.117 169.905 360.288 169.631 360.469C168.067 361.502 168.608 363.924 170.46 364.21L170.502 364.216C170.532 364.221 170.558 364.225 170.588 364.229C169.678 366.39 168.409 368.395 166.821 370.125C165.274 378.47 158.631 379.261 151.525 376.831H151.521C150.744 380.213 149.609 383.516 148.15 386.665H136.109C136.066 386.531 136.027 386.393 135.988 386.259C137.101 386.328 138.224 386.263 139.32 386.061C138.426 384.965 137.533 383.861 136.64 382.766C136.618 382.744 136.601 382.723 136.584 382.701C136.13 382.14 135.673 381.584 135.22 381.023L135.219 381.023C135.191 379.302 135.398 377.586 135.807 375.921L135.807 375.921Z" fill="#F2F2F2"/>
<path d="M41.1557 377.256C39.7752 377.343 39.0123 375.629 40.0567 374.63L40.1606 374.217C40.1469 374.184 40.1332 374.151 40.1193 374.118C38.7233 370.792 33.9919 370.815 32.6077 374.146C31.3792 377.103 29.815 380.065 29.4299 383.191C29.2572 384.571 29.3349 385.977 29.6413 387.331C26.7626 381.048 25.2478 374.186 25.2478 367.285C25.2478 365.552 25.3427 363.818 25.5369 362.088C25.6966 360.674 25.9167 359.268 26.2016 357.875C27.7423 350.345 31.0785 343.172 35.8907 337.182C38.204 335.918 40.1332 333.943 41.2985 331.575C41.7171 330.721 42.0451 329.803 42.2005 328.867C41.9372 328.901 41.2078 324.895 41.4064 324.649C41.0395 324.092 40.3829 323.816 39.9822 323.273C37.9893 320.573 35.2438 321.044 33.8104 324.713C30.7485 326.258 30.7189 328.819 32.5977 331.282C33.793 332.849 33.9572 334.969 35.0059 336.647C34.898 336.785 34.7858 336.919 34.6779 337.057C32.6993 339.593 30.988 342.319 29.5454 345.182C29.9531 342 29.3512 338.165 28.325 335.694C27.1568 332.878 24.9673 330.506 23.0391 328.072C20.7231 325.147 15.9739 326.424 15.5659 330.131C15.5619 330.166 15.5581 330.202 15.5543 330.238C15.8407 330.4 16.1213 330.571 16.3953 330.752C17.9586 331.785 17.4183 334.207 15.566 334.493L15.5241 334.499C15.6277 335.53 15.8046 336.552 16.0636 337.557C13.59 347.116 18.9303 350.598 26.5554 350.754C26.7238 350.841 26.8878 350.927 27.0561 351.009C26.2836 353.182 25.6664 355.412 25.2089 357.672C24.7989 359.669 24.514 361.687 24.3544 363.714C24.1558 366.272 24.1731 368.842 24.3889 371.396L24.376 371.305C23.8279 368.493 22.3 365.866 20.0816 364.046C16.7769 361.334 12.108 360.335 8.54284 358.154C6.82666 357.105 4.6275 358.461 4.92702 360.449L4.9416 360.545C5.47245 360.76 5.99034 361.01 6.49098 361.291C6.77738 361.452 7.05795 361.624 7.33202 361.805C8.89529 362.838 8.35502 365.259 6.50272 365.545L6.46075 365.552C6.43054 365.556 6.40464 365.56 6.37447 365.565C7.28512 367.725 8.55396 369.731 10.1422 371.46C11.6889 379.805 18.3318 380.597 25.4376 378.167H25.442C26.2188 381.548 27.3539 384.852 28.8127 388H40.8539C40.8971 387.866 40.936 387.728 40.9748 387.595C39.8613 387.664 38.7392 387.599 37.6429 387.396C38.5363 386.301 39.4297 385.197 40.3231 384.101C40.3447 384.08 40.362 384.058 40.3792 384.036C40.8324 383.476 41.2899 382.919 41.743 382.359L41.7433 382.358C41.7716 380.637 41.5652 378.922 41.1561 377.257L41.1557 377.256Z" fill="#F2F2F2"/>
<path d="M0 386.937C0 387.378 0.354171 387.732 0.795209 387.732H170.046C170.487 387.732 170.841 387.378 170.841 386.937C170.841 386.496 170.487 386.142 170.046 386.142H0.795209C0.354171 386.142 0 386.496 0 386.937Z" fill="#CCCCCC"/>
<path d="M109.244 82.9557C118.262 82.9557 125.572 75.6503 125.572 66.6387C125.572 57.627 118.262 50.3217 109.244 50.3217C100.226 50.3217 92.915 57.627 92.915 66.6387C92.915 75.6503 100.226 82.9557 109.244 82.9557Z" fill="#FFB6B6"/>
<path d="M124.517 66.0018C124.563 66.0018 124.677 66.0018 124.891 66.0085C125.512 66.0486 124.67 66.0152 124.517 66.0018Z" fill="#2F2E41"/>
<path d="M133.21 64.446C133.09 64.7398 132.695 64.9801 132.141 65.1738C131.085 63.8317 129.715 62.7432 128.152 62.0688C128.853 63.2107 129.428 64.4259 129.855 65.6946C128.339 65.915 126.648 66.0085 125.559 66.0151C125.298 66.0151 125.071 66.0151 124.891 66.0085C124.623 65.5344 124.196 64.7665 123.828 63.9719C123.795 66.142 120.768 72.539 121.015 77.9476C121.316 84.418 121.657 91.476 121.657 91.476C120.567 91.7498 119.251 91.9434 117.747 92.0636C116.09 89.0254 114.861 85.6266 114.199 82.1811C114.126 81.8139 114.066 81.4466 114.006 81.0793C113.865 81.5 113.732 81.9274 113.618 82.3614C113.117 84.1643 112.823 86.1074 112.729 88.124C112.662 89.4528 112.689 90.8016 112.789 92.1705C104.544 93.8465 94.3468 93.6729 86.9698 89.5797C87.217 88.9052 87.4041 88.2108 87.5244 87.503C87.9253 85.1792 84.6912 84.8521 82.5396 86.2743C80.388 84.1176 78.7575 81.3798 77.8755 77.9543C91.9346 71.7911 77.1338 64.2056 87.9922 53.2747C86.6825 43.7794 112.916 41.035 117.995 49.4753C119.104 48.6339 122.559 48.674 124.029 49.2883C125.499 49.9026 126.635 50.9376 127.744 51.9392C128.486 52.6203 128.138 53.9758 127.664 54.9908C129.996 53.8756 135.201 59.6716 133.21 64.446V64.446Z" fill="#2F2E41"/>
</g>
<defs>
<clipPath id="clip0_2903_32986">
<rect width="446" height="388" fill="white"/>
</clipPath>
</defs>
</svg>
