<svg width="40" height="40" viewBox="0 0 40 40" fill="none" xmlns="http://www.w3.org/2000/svg">
<mask id="mask0_2900_32559" style="mask-type:alpha" maskUnits="userSpaceOnUse" x="0" y="0" width="40" height="40">
<rect width="40" height="40" fill="#D9D9D9"/>
</mask>
<g mask="url(#mask0_2900_32559)">
<path d="M9.57328 29.0625C11.2235 27.9004 12.89 27.0069 14.5729 26.3819C16.2558 25.7569 18.0648 25.4444 20 25.4444C21.9352 25.4444 23.7465 25.7569 25.434 26.3819C27.1215 27.0069 28.7986 27.9004 30.4653 29.0625C31.6273 27.6597 32.4653 26.2144 32.9792 24.7266C33.493 23.2388 33.75 21.6638 33.75 20.0018C33.75 16.1163 32.4294 12.8529 29.7882 10.2118C27.147 7.57056 23.8843 6.24996 20 6.24996C16.1157 6.24996 12.853 7.57056 10.2118 10.2118C7.57059 12.8529 6.24999 16.1163 6.24999 20.0018C6.24999 21.6638 6.51156 23.2388 7.0347 24.7266C7.55784 26.2144 8.40403 27.6597 9.57328 29.0625ZM19.9979 21.3333C18.3974 21.3333 17.0486 20.784 15.9514 19.6854C14.8541 18.5867 14.3055 17.2372 14.3055 15.6368C14.3055 14.0363 14.8549 12.6875 15.9535 11.5903C17.0521 10.493 18.4016 9.94442 20.0021 9.94442C21.6025 9.94442 22.9514 10.4937 24.0486 11.5923C25.1458 12.6909 25.6944 14.0405 25.6944 15.6409C25.6944 17.2414 25.1451 18.5902 24.0465 19.6875C22.9479 20.7847 21.5984 21.3333 19.9979 21.3333ZM20.006 36.3888C17.7546 36.3888 15.6313 35.9569 13.6362 35.0932C11.641 34.2294 9.9031 33.0558 8.42241 31.5723C6.94171 30.0889 5.76966 28.3532 4.90624 26.3651C4.04282 24.3771 3.61111 22.2529 3.61111 19.9926C3.61111 17.7408 4.043 15.6197 4.90678 13.6292C5.77059 11.6387 6.9442 9.90307 8.42761 8.42238C9.91106 6.94168 11.6468 5.76963 13.6348 4.90621C15.6228 4.04279 17.747 3.61108 20.0074 3.61108C22.2591 3.61108 24.3803 4.04297 26.3708 4.90675C28.3613 5.77056 30.0969 6.94417 31.5776 8.42758C33.0583 9.91103 34.2303 11.6473 35.0937 13.6364C35.9572 15.6256 36.3889 17.7447 36.3889 19.9939C36.3889 22.2454 35.957 24.3687 35.0932 26.3638C34.2294 28.3589 33.0558 30.0968 31.5724 31.5775C30.0889 33.0582 28.3526 34.2303 26.3635 35.0937C24.3744 35.9571 22.2552 36.3888 20.006 36.3888ZM19.9992 33.75C21.4905 33.75 22.9271 33.5347 24.309 33.1041C25.691 32.6736 27.0509 31.9537 28.3889 30.9444C27.0509 30.0139 25.6865 29.3044 24.2957 28.8159C22.9049 28.3275 21.4738 28.0833 20.0025 28.0833C18.5312 28.0833 17.0958 28.324 15.6964 28.8055C14.2969 29.287 12.9352 30 11.6111 30.9444C12.949 31.9537 14.3087 32.6736 15.6901 33.1041C17.0715 33.5347 18.5079 33.75 19.9992 33.75ZM20 18.6944C20.8842 18.6944 21.6146 18.4062 22.191 17.8298C22.7674 17.2534 23.0556 16.5231 23.0556 15.6388C23.0556 14.7546 22.7674 14.0243 22.191 13.4479C21.6146 12.8715 20.8842 12.5833 20 12.5833C19.1157 12.5833 18.3854 12.8715 17.809 13.4479C17.2326 14.0243 16.9444 14.7546 16.9444 15.6388C16.9444 16.5231 17.2326 17.2534 17.809 17.8298C18.3854 18.4062 19.1157 18.6944 20 18.6944Z" fill="white"/>
</g>
</svg>
