<svg width="38" height="37" viewBox="0 0 38 37" fill="none" xmlns="http://www.w3.org/2000/svg">
<path d="M1.5 8.5L19 16L27.75 12.25L36.5 8.5L19 1L10.25 4.75L1.5 8.5Z" fill="white"/>
<path d="M19 36V16L1.5 8.5V28.5L19 36Z" fill="white"/>
<path d="M19 16V36L36.5 28.5V8.5L27.75 12.25L19 16Z" fill="#692DB6"/>
<path d="M19 36V16M19 36L1.5 28.5V8.5M19 36L36.5 28.5V8.5M19 16L27.75 12.25M19 16L1.5 8.5M1.5 8.5L10.25 4.75M36.5 8.5L27.75 12.25M36.5 8.5L19 1L10.25 4.75M27.75 12.25L10.25 4.75" stroke="#222222" stroke-width="1.5" stroke-linecap="round" stroke-linejoin="round"/>
<path d="M26 18.5L30.5 16.5" stroke="white" stroke-width="1.5" stroke-linecap="round"/>
</svg>
