<svg width="40" height="40" viewBox="0 0 40 40" fill="none" xmlns="http://www.w3.org/2000/svg">
<mask id="mask0_2900_32562" style="mask-type:alpha" maskUnits="userSpaceOnUse" x="0" y="0" width="40" height="40">
<rect width="40" height="40" fill="#D9D9D9"/>
</mask>
<g mask="url(#mask0_2900_32562)">
<path d="M16.0486 16.9722L19.125 15.4445C19.404 15.3102 19.6938 15.243 19.9943 15.243C20.2947 15.243 20.5883 15.3102 20.875 15.4445L23.9653 16.9722V7.88888H16.0486V16.9722ZM13.3333 28.257C12.8949 28.257 12.5203 28.1014 12.2094 27.7902C11.8985 27.479 11.743 27.104 11.743 26.6652C11.743 26.2264 11.8985 25.8495 12.2094 25.5347C12.5203 25.2199 12.8949 25.0625 13.3333 25.0625H18.3333C18.7757 25.0625 19.1537 25.219 19.4672 25.532C19.7807 25.8451 19.9375 26.2224 19.9375 26.664C19.9375 27.1056 19.7807 27.4815 19.4672 27.7917C19.1537 28.1019 18.7757 28.257 18.3333 28.257H13.3333ZM7.88887 34.75C7.17707 34.75 6.55931 34.4881 6.03558 33.9644C5.51186 33.4407 5.25 32.8229 5.25 32.1111V7.88888C5.25 7.17707 5.51186 6.55931 6.03558 6.03558C6.55931 5.51186 7.17707 5.25 7.88887 5.25H32.1111C32.8229 5.25 33.4407 5.51186 33.9644 6.03558C34.4881 6.55931 34.75 7.17707 34.75 7.88888V32.1111C34.75 32.8229 34.4881 33.4407 33.9644 33.9644C33.4407 34.4881 32.8229 34.75 32.1111 34.75H7.88887ZM7.88887 32.1111H32.1111V7.88888H26.6042V19.0972C26.6042 19.6088 26.3958 19.9925 25.9792 20.2483C25.5625 20.5041 25.1343 20.5185 24.6945 20.2917L20 17.9445L15.3055 20.2917C14.8657 20.5185 14.4398 20.5041 14.0278 20.2483C13.6157 19.9925 13.4097 19.6088 13.4097 19.0972V7.88888H7.88887V32.1111Z" fill="white"/>
</g>
</svg>
