<svg width="28" height="36" viewBox="0 0 28 36" fill="none" xmlns="http://www.w3.org/2000/svg">
<path d="M20.1096 4.47981C19.6652 2.90453 18.2174 1.75 16.5 1.75H11.5C9.78256 1.75 8.33478 2.90453 7.89044 4.47981M20.1096 4.47981C20.2011 4.80417 20.25 5.14637 20.25 5.5V5.5C20.25 6.19036 19.6904 6.75 19 6.75H9C8.30964 6.75 7.75 6.19036 7.75 5.5V5.5C7.75 5.14637 7.79895 4.80417 7.89044 4.47981M20.1096 4.47981C21.1865 4.56114 22.2576 4.66379 23.3222 4.78735C25.1565 5.00023 26.5 6.58167 26.5 8.42831V30.5C26.5 32.5711 24.8211 34.25 22.75 34.25H5.25C3.17893 34.25 1.5 32.5711 1.5 30.5V8.42831C1.5 6.58167 2.84347 5.00023 4.6778 4.78735C5.74245 4.66379 6.81347 4.56114 7.89044 4.47981" stroke="#2B1887" stroke-width="2.5" stroke-linecap="round" stroke-linejoin="round"/>
</svg>
