<svg width="29" height="36" viewBox="0 0 29 36" fill="none" xmlns="http://www.w3.org/2000/svg">
<path d="M11.375 1.75H3.875C2.83947 1.75 2 2.58947 2 3.625V32.375C2 33.4105 2.83947 34.25 3.875 34.25H25.125C26.1605 34.25 27 33.4105 27 32.375V17.375M11.375 1.75H12C20.2843 1.75 27 8.46573 27 16.75V17.375M11.375 1.75C14.4816 1.75 17 4.2684 17 7.375V9.875C17 10.9105 17.8395 11.75 18.875 11.75H21.375C24.4816 11.75 27 14.2684 27 17.375M9.5 23L13.25 26.75L19.5 18" stroke="#2B1887" stroke-width="2.5" stroke-linecap="round" stroke-linejoin="round"/>
</svg>
