<svg width="28" height="30" viewBox="0 0 28 30" fill="none" xmlns="http://www.w3.org/2000/svg">
<path d="M2 7H4.66667M4.66667 7H26M4.66667 7L4.66667 25.6667C4.66667 26.3739 4.94762 27.0522 5.44772 27.5523C5.94781 28.0524 6.62609 28.3333 7.33333 28.3333H20.6667C21.3739 28.3333 22.0522 28.0524 22.5523 27.5523C23.0524 27.0522 23.3333 26.3739 23.3333 25.6667V7M8.66667 7V4.33333C8.66667 3.62609 8.94762 2.94781 9.44772 2.44771C9.94781 1.94762 10.6261 1.66666 11.3333 1.66666H16.6667C17.3739 1.66666 18.0522 1.94762 18.5523 2.44771C19.0524 2.94781 19.3333 3.62609 19.3333 4.33333V7M11.3333 13.6667V21.6667M16.6667 13.6667V21.6667" stroke="#2B1887" stroke-width="3" stroke-linecap="round" stroke-linejoin="round"/>
</svg>
